<svg width="54" height="30" fill="none" xmlns="http://www.w3.org/2000/svg"><g clip-path="url(#a)"><path d="M53.27 11.098v7.465h-2.631v-5.238h-2.533v5.238h-2.63v-7.465h7.793ZM44.233 15.26c0 2.17-1.81 3.605-4.247 3.605-2.524 0-4.36-1.518-4.36-4.96 0-2.95 1.885-5.383 4.678-5.426 1.22 0 3.846-.058 3.846-.058l-1.182 2.17h-2.369a2.483 2.483 0 0 0-2.45 2.145c.685-.631 1.589-.97 2.52-.947 2.222.004 3.564 1.367 3.564 3.47Zm-2.7 0c0-.975-.629-1.546-1.532-1.546-.936 0-1.559.584-1.559 1.559 0 .918.627 1.588 1.559 1.588.969 0 1.526-.724 1.526-1.602h.006ZM33.538 16.309a4.1 4.1 0 0 1-1.586.427c-1.09.031-2.058-.64-2.058-1.838 0-1.197.86-1.837 2.037-1.837.723 0 1.684.49 1.684.49s.7-1.255 1.061-1.882a4.27 4.27 0 0 0-2.586-.758c-2.593 0-4.6 1.654-4.6 3.976 0 2.352 1.888 3.966 4.6 3.918.76-.028 1.808-.288 2.444-.689l-.995-1.807Z" fill="#fff"/><path d="m0 6.513 3.635 6.477v3.947l-3.63 6.465L0 6.512Z" fill="#575FAA"/><path d="m13.955 10.633 3.407-2.081 6.968-.006-10.375 6.337v-4.25Z" fill="#DB195B"/><path d="m13.937 6.475.018 8.573-3.643-2.23V0l3.625 6.475Z" fill="#FCB52E"/><path d="m24.33 8.546-6.968.006-3.425-2.077L10.313 0 24.33 8.546Z" fill="#F47732"/><path d="M13.955 23.44v-4.162l-3.643-2.189.002 12.831 3.641-6.48Z" fill="#60BB46"/><path d="M17.353 21.377 3.635 12.99 0 6.513 24.317 21.37l-6.964.007Z" fill="#128ACB"/><path d="m10.315 29.92 3.64-6.48 3.398-2.063 6.963-.007-14.001 8.55Z" fill="#0C8442"/><path d="m.006 23.402 10.335-6.313-3.475-2.125-3.23 1.974-3.63 6.464Z" fill="#9151A0"/></g><defs><clipPath id="a"><path fill="#fff" d="M0 0h53.269v29.92H0z"/></clipPath></defs></svg>