<svg xmlns="http://www.w3.org/2000/svg" width="36" height="24" fill="none"><rect width="36" height="24" fill="#000" fill-opacity=".05" rx="3"/><path fill="#CCC" fill-rule="evenodd" d="M17.422 5.59c-1.728 1.222-2.742 3.323-2.877 5.832h2.877V5.59Zm-6.242 5.832h2.206c.112-2.292.893-4.378 2.315-5.87a6.849 6.849 0 0 0-4.521 5.87Zm-1.18.58a8 8 0 1 1 16 0 8 8 0 0 1-16 0Zm14.82-.579a6.849 6.849 0 0 0-4.522-5.869c1.422 1.49 2.203 3.577 2.315 5.87h2.206l.001-.001Zm0 1.157a6.85 6.85 0 0 1-4.524 5.87c1.422-1.49 2.204-3.577 2.317-5.87h2.207Zm-9.115 5.87a6.849 6.849 0 0 1-4.524-5.87h2.207c.112 2.293.894 4.38 2.317 5.87Zm2.873-12.86c1.728 1.222 2.742 3.323 2.877 5.832h-2.877V5.59Zm-1.156 12.82v-5.83h-2.876c.134 2.508 1.149 4.609 2.876 5.83Zm4.033-5.83h-2.877v5.83c1.727-1.221 2.742-3.322 2.877-5.83Z" clip-rule="evenodd"/></svg>